<svg xmlns="http://www.w3.org/2000/svg" viewBox="0 0 32 32">
	<defs><style>.a1{fill:#fff;stroke-width:0}</style></defs>
	<path class="a1" d="M25.61 26.02c-.98 1.03-2.09 1.85-3.32 2.49-2.87 1.49-5.91 1.94-9.08 1.27-3.1-.66-5.43-2.29-6.85-3.8.27 0 .47-.01.67.01.1.01.2.09.28.15.34.27.68.55 1.02.83 1.03.82 2.22 1.37 3.45 1.82 1.04.38 2.11.55 3.21.65 1.54.14 3.06-.04 4.54-.44.99-.27 1.91-.68 2.81-1.16.76-.42 1.45-.94 2.09-1.51.35-.32.7-.41 1.18-.31ZM28.51 20.98c.01.2 0 .39 0 .6 3.33-8.29-2.26-17.42-10.92-18.38.1.44.24.59.65.67.13.03.26.06.39.08.82.14 1.61.42 2.38.73 1.59.65 2.95 1.64 4.17 2.84 1.16 1.13 2.02 2.48 2.67 3.96.69 1.55 1.01 3.18 1.03 4.87.02.79 0 1.59-.18 2.36-.17.75-.2 1.51-.19 2.27ZM14.03 3.83c.07-.02.16-.07.19-.13.09-.13.14-.28.23-.48-1.28.08-2.45.41-3.58.88a13.41 13.41 0 0 0-5.64 4.35c-3.16 4.19-3.3 9.45-1.76 13.06.01-.11.02-.17.02-.24 0-.31.01-.63-.01-.94-.02-.35-.04-.71-.1-1.06-.1-.62-.21-1.23-.25-1.86-.1-1.78.09-3.51.7-5.18.83-2.26 2.16-4.16 4.05-5.67.35-.27.7-.55 1.08-.8 1.42-.91 2.95-1.55 4.63-1.84.15-.03.3-.05.44-.09Z"/>
	<path class="a1" d="M27.47 18.7H25.5c-.13-.21-.26-.41-.38-.62-2.19-3.9-4.38-7.8-6.57-11.69-.78-1.39-1.56-2.78-2.34-4.16-.06-.1-.13-.19-.21-.31-.06.08-.09.12-.11.16-1.38 2.46-2.76 4.91-4.14 7.37-1.7 3.02-3.39 6.03-5.07 9.05-.1.16-.21.22-.39.21H4.55c-.11 0-.23 0-.34.02-.07.27-.05 6.3.01 6.53h3.43v-3.12c.41-.07 16.45-.05 16.68.02v1.54c0 .52.01 1.03.01 1.56h3.48v-6.53c-.13-.01-.24-.02-.35-.02Zm-16.95-.05c1.8-3.35 3.6-6.69 5.43-10.09 1.87 3.4 3.71 6.75 5.55 10.1-.3.06-10.76.06-10.98 0Z"/>
</svg>